G04 start of page 10 for group -4062 idx -4062 *
G04 Title: (unknown), soldermask *
G04 Creator: pcb 20140316 *
G04 CreationDate: Sat 08 Jul 2017 15:17:32 GMT UTC *
G04 For: ole *
G04 Format: Gerber/RS-274X *
G04 PCB-Dimensions (mil): 7000.00 6000.00 *
G04 PCB-Coordinate-Origin: lower left *
%MOIN*%
%FSLAX25Y25*%
%LNBOTTOMMASK*%
%ADD88R,0.0787X0.0787*%
%ADD87R,0.1206X0.1206*%
%ADD86C,0.0700*%
%ADD85C,0.1250*%
%ADD84C,0.0760*%
G54D84*X380000Y200000D03*
Y190000D03*
Y180000D03*
X390000Y200000D03*
Y190000D03*
Y180000D03*
Y170000D03*
Y160000D03*
Y150000D03*
X380000Y170000D03*
Y160000D03*
Y150000D03*
Y140000D03*
X390000D03*
G54D85*X314961Y174803D03*
G54D84*X350000Y170000D03*
X360000D03*
X390000Y290000D03*
Y280000D03*
Y270000D03*
Y260000D03*
Y250000D03*
Y240000D03*
X380000Y260000D03*
Y250000D03*
Y240000D03*
Y230000D03*
X390000D03*
Y220000D03*
X380000Y290000D03*
Y280000D03*
Y270000D03*
Y360000D03*
Y350000D03*
Y340000D03*
X390000Y360000D03*
Y350000D03*
Y340000D03*
X380000Y220000D03*
G54D85*X110236Y174803D03*
X314961Y265354D03*
Y493701D03*
Y474016D03*
X122047Y493701D03*
Y265354D03*
X110236Y474016D03*
X181102Y265354D03*
Y493701D03*
X145669Y462205D03*
X362205Y379528D03*
X145669Y155118D03*
G54D84*X340000Y295000D03*
Y285000D03*
X570000Y270000D03*
Y260000D03*
Y230000D03*
Y220000D03*
Y210000D03*
Y200000D03*
X580000Y270000D03*
Y260000D03*
Y230000D03*
Y220000D03*
Y210000D03*
Y200000D03*
X570000Y360000D03*
Y350000D03*
Y340000D03*
Y330000D03*
Y320000D03*
Y310000D03*
Y300000D03*
Y290000D03*
X580000Y310000D03*
Y300000D03*
Y290000D03*
X570000Y160000D03*
X580000D03*
X570000Y150000D03*
X580000D03*
X570000Y180000D03*
X580000D03*
X570000Y170000D03*
X580000D03*
X570000Y140000D03*
X580000D03*
G54D85*X497500Y166429D03*
G54D84*X405000Y470000D03*
Y460000D03*
G54D86*X425000Y470000D03*
X435000Y480000D03*
X425000Y490000D03*
G54D84*X405000Y450000D03*
G54D86*X425000Y430000D03*
Y450000D03*
X435000Y440000D03*
G54D84*X450000Y505000D03*
X460000D03*
X500000D03*
X510000D03*
X500000Y430000D03*
X469000D03*
X449000D03*
X459000D03*
X510000D03*
X580000Y360000D03*
Y350000D03*
Y340000D03*
Y330000D03*
Y320000D03*
G54D85*X551181Y462205D03*
G54D84*X560000Y500000D03*
Y490000D03*
G54D87*X531561Y568705D02*Y543115D01*
X535498Y568705D02*Y543115D01*
X547309Y568705D02*Y543115D01*
X551246Y568705D02*Y543115D01*
X563057Y568705D02*Y543115D01*
G54D88*X532181Y570415D02*Y540415D01*
X547756Y570415D02*Y540415D01*
X563331Y570415D02*Y540415D01*
G54D87*X515813Y568705D02*Y543115D01*
G54D88*X516606Y570415D02*Y540415D01*
G54D87*X519750Y568705D02*Y543115D01*
X484317Y568705D02*Y543115D01*
X488254Y568705D02*Y543115D01*
X500065Y568705D02*Y543115D01*
X504002Y568705D02*Y543115D01*
G54D88*X501031Y570415D02*Y540415D01*
X485457Y570415D02*Y540415D01*
G54D87*X440945Y568504D02*Y542913D01*
X437008Y568504D02*Y542913D01*
X425197Y568504D02*Y542913D01*
X421260Y568504D02*Y542913D01*
G54D88*X423157Y570415D02*Y540415D01*
X438732Y570415D02*Y540415D01*
G54D87*X409449Y568504D02*Y542913D01*
X405512Y568504D02*Y542913D01*
X393701Y568504D02*Y542913D01*
X389764Y568504D02*Y542913D01*
G54D88*X392008Y570415D02*Y540415D01*
X407583Y570415D02*Y540415D01*
G54D87*X377953Y568504D02*Y542913D01*
X374016Y568504D02*Y542913D01*
X362205Y568504D02*Y542913D01*
X358268Y568504D02*Y542913D01*
G54D88*X360858Y570415D02*Y540415D01*
X376433Y570415D02*Y540415D01*
G54D87*X452821Y568705D02*Y543115D01*
X456758Y568705D02*Y543115D01*
G54D88*X454307Y570415D02*Y540415D01*
G54D87*X221649Y568550D02*Y542960D01*
G54D88*X220685Y570415D02*Y540415D01*
G54D87*X217712Y568550D02*Y542960D01*
X205901Y568550D02*Y542960D01*
G54D88*X205110Y570415D02*Y540415D01*
G54D87*X201964Y568550D02*Y542960D01*
X142488Y568478D02*Y542888D01*
G54D88*X142811Y570415D02*Y540415D01*
G54D87*X154558Y568509D02*Y542919D01*
X158318Y568570D02*Y542980D01*
G54D88*X158386Y570415D02*Y540415D01*
G54D87*X186736Y568464D02*Y542874D01*
X189946Y568526D02*Y542936D01*
G54D88*X189535Y570415D02*Y540415D01*
X173961Y570415D02*Y540415D01*
G54D87*X170363Y568526D02*Y542936D01*
X174680Y568438D02*Y542848D01*
X346457Y568504D02*Y542913D01*
X342520Y568504D02*Y542913D01*
X330709Y568504D02*Y542913D01*
X326772Y568504D02*Y542913D01*
X314961Y568504D02*Y542913D01*
G54D88*X329709Y570415D02*Y540415D01*
X345283Y570415D02*Y540415D01*
G54D87*X311024Y568504D02*Y542913D01*
X299213Y568504D02*Y542913D01*
G54D88*X298559Y570415D02*Y540415D01*
X314134Y570415D02*Y540415D01*
G54D87*X267717Y568504D02*Y542913D01*
X263780Y568504D02*Y542913D01*
X251969Y568504D02*Y542913D01*
X248031Y568504D02*Y542913D01*
G54D88*X251835Y570415D02*Y540415D01*
X267409Y570415D02*Y540415D01*
G54D87*X236220Y568504D02*Y542913D01*
X232283Y568504D02*Y542913D01*
G54D88*X236260Y570415D02*Y540415D01*
G54D87*X279528Y568504D02*Y542913D01*
G54D88*X282984Y570415D02*Y540415D01*
G54D87*X295276Y568504D02*Y542913D01*
X283465Y568504D02*Y542913D01*
M02*
