M48
INCH
T75C0.035
T74C0.020
T73C0.078
T72C0.038
%
T74
X032000Y037250
X033000Y037250
X034000Y036250
X035750Y036250
X037750Y047750
X038500Y052000
X040500Y038750
X041500Y031750
X041500Y024000
X044500Y035750
X044500Y031500
X044750Y038750
X046750Y024000
X047250Y031750
X047500Y035000
X048000Y028500
X048250Y026500
X048250Y025500
X048500Y033000
X048750Y027000
X048750Y026000
X050750Y023000
X050750Y022000
X051500Y021000
X051750Y029000
X051750Y020000
X053750Y036500
X054750Y036500
X055500Y036500
X057250Y040000
T75
X014250Y051750
X015750Y051750
X036000Y051000
X044225Y016725
X047000Y046500
X049500Y046500
X049750Y052000
X051750Y039000
X054500Y014000
X054750Y051500
X056250Y051500
X058250Y039000
T72
X034000Y029500
X034000Y028500
X035000Y017000
X036000Y017000
X038000Y036000
X038000Y035000
X038000Y034000
X038000Y029000
X038000Y028000
X038000Y027000
X038000Y026000
X038000Y025000
X038000Y024000
X038000Y023000
X038000Y022000
X038000Y020000
X038000Y019000
X038000Y018000
X038000Y017000
X038000Y016000
X038000Y015000
X038000Y014000
X039000Y036000
X039000Y035000
X039000Y034000
X039000Y029000
X039000Y028000
X039000Y027000
X039000Y026000
X039000Y025000
X039000Y024000
X039000Y023000
X039000Y022000
X039000Y020000
X039000Y019000
X039000Y018000
X039000Y017000
X039000Y016000
X039000Y015000
X039000Y014000
X040500Y047000
X040500Y046000
X040500Y045000
X042500Y049000
X042500Y047000
X042500Y045000
X042500Y043000
X043500Y048000
X043500Y044000
X044900Y043000
X045000Y050500
X045900Y043000
X046000Y050500
X046900Y043000
X050000Y050500
X050000Y043000
X051000Y050500
X051000Y043000
X056000Y050000
X056000Y049000
X057000Y036000
X057000Y035000
X057000Y034000
X057000Y033000
X057000Y032000
X057000Y031000
X057000Y030000
X057000Y029000
X057000Y027000
X057000Y026000
X057000Y023000
X057000Y022000
X057000Y021000
X057000Y020000
X057000Y018000
X057000Y017000
X057000Y016000
X057000Y015000
X057000Y014000
X058000Y036000
X058000Y035000
X058000Y034000
X058000Y033000
X058000Y032000
X058000Y031000
X058000Y030000
X058000Y029000
X058000Y027000
X058000Y026000
X058000Y023000
X058000Y022000
X058000Y021000
X058000Y020000
X058000Y018000
X058000Y017000
X058000Y016000
X058000Y015000
X058000Y014000
T73
X011024Y047402
X011024Y017480
X012205Y049370
X012205Y026535
X014567Y046220
X014567Y015512
X018110Y049370
X018110Y026535
X031496Y049370
X031496Y047402
X031496Y026535
X031496Y017480
X036220Y037953
X049750Y016643
X055118Y046220
M30
